# Blender v2.78 (sub 0) OBJ File: ''
# www.blender.org
mtllib wand.mtl
o wand-tip_Cylinder.002
v -0.334795 1.691557 -3.092740
v -0.273241 1.649858 -1.862741
v -0.282653 1.746999 -3.093470
v -0.221099 1.705300 -1.863470
v -0.220804 1.791267 -3.095064
v -0.159251 1.749568 -1.865065
v -0.151628 1.822660 -3.097462
v -0.090074 1.780962 -1.867462
v -0.077781 1.839972 -3.100570
v -0.016227 1.798274 -1.870571
v -0.002102 1.842538 -3.104271
v 0.059451 1.800839 -1.874271
v 0.072500 1.830258 -3.108420
v 0.134054 1.788560 -1.878421
v 0.143160 1.803606 -3.112860
v 0.204714 1.761907 -1.882861
v 0.207161 1.763604 -3.117419
v 0.268715 1.721906 -1.887420
v 0.262045 1.711791 -3.121922
v 0.323599 1.670092 -1.891923
v 0.305701 1.650157 -3.126196
v 0.367255 1.608458 -1.896197
v 0.336452 1.581071 -3.130077
v 0.398006 1.539372 -1.900078
v 0.353117 1.507188 -3.133416
v 0.414671 1.465489 -1.903417
v 0.355055 1.431347 -3.136084
v 0.416609 1.389648 -1.906085
v 0.342192 1.356463 -3.137979
v 0.403745 1.314764 -1.907980
v 0.315021 1.285413 -3.139028
v 0.376575 1.243715 -1.909029
v 0.274587 1.220929 -3.139191
v 0.336141 1.179230 -1.909191
v 0.222445 1.165487 -3.138461
v 0.283998 1.123788 -1.908461
v 0.160596 1.121219 -3.136867
v 0.222150 1.079520 -1.906867
v 0.091420 1.089825 -3.134469
v 0.152974 1.048127 -1.904469
v 0.017573 1.072513 -3.131360
v 0.079127 1.030815 -1.901361
v -0.058106 1.069947 -3.127660
v 0.003448 1.028249 -1.897660
v -0.132709 1.082227 -3.123510
v -0.071155 1.040529 -1.893511
v -0.203368 1.108880 -3.119071
v -0.141815 1.067181 -1.889071
v -0.267370 1.148882 -3.114511
v -0.205816 1.107183 -1.884512
v -0.322253 1.200695 -3.110008
v -0.260699 1.158996 -1.880009
v -0.365909 1.262329 -3.105734
v -0.304355 1.220630 -1.875735
v -0.396661 1.331415 -3.101853
v -0.335107 1.289716 -1.871854
v -0.413325 1.405298 -3.098515
v -0.351772 1.363600 -1.868515
v -0.415263 1.481139 -3.095846
v -0.353709 1.439440 -1.865847
v -0.402399 1.556023 -3.093951
v -0.340846 1.514324 -1.863952
v -0.375229 1.627073 -3.092903
v -0.313675 1.585374 -1.862903
vn -0.7268 0.6843 0.0596
vn -0.5801 0.8126 0.0566
vn -0.4112 0.9101 0.0514
vn -0.2263 0.9731 0.0443
vn -0.0321 0.9989 0.0355
vn 0.1637 0.9862 0.0252
vn 0.3537 0.9353 0.0140
vn 0.5301 0.8479 0.0022
vn 0.6860 0.7275 -0.0097
vn 0.8152 0.5789 -0.0212
vn 0.9125 0.4079 -0.0318
vn 0.9743 0.2216 -0.0412
vn 0.9984 0.0272 -0.0490
vn 0.9843 -0.1677 -0.0549
vn 0.9327 -0.3558 -0.0587
vn 0.8458 -0.5302 -0.0603
vn 0.7268 -0.6843 -0.0596
vn 0.5801 -0.8126 -0.0566
vn 0.4112 -0.9101 -0.0514
vn 0.2263 -0.9731 -0.0443
vn 0.0321 -0.9989 -0.0355
vn -0.1637 -0.9862 -0.0252
vn -0.3537 -0.9353 -0.0140
vn -0.5301 -0.8479 -0.0022
vn -0.6860 -0.7275 0.0097
vn -0.8152 -0.5789 0.0212
vn -0.9125 -0.4079 0.0318
vn -0.9743 -0.2216 0.0412
vn -0.9984 -0.0272 0.0490
vn -0.9843 0.1677 0.0549
vn 0.0500 -0.0338 0.9982
vn -0.9327 0.3558 0.0587
vn -0.8458 0.5302 0.0603
vn -0.0500 0.0338 -0.9982
usemtl Material.001
s off
f 1//1 2//1 4//1 3//1
f 3//2 4//2 6//2 5//2
f 5//3 6//3 8//3 7//3
f 7//4 8//4 10//4 9//4
f 9//5 10//5 12//5 11//5
f 11//6 12//6 14//6 13//6
f 13//7 14//7 16//7 15//7
f 15//8 16//8 18//8 17//8
f 17//9 18//9 20//9 19//9
f 19//10 20//10 22//10 21//10
f 21//11 22//11 24//11 23//11
f 23//12 24//12 26//12 25//12
f 25//13 26//13 28//13 27//13
f 27//14 28//14 30//14 29//14
f 29//15 30//15 32//15 31//15
f 31//16 32//16 34//16 33//16
f 33//17 34//17 36//17 35//17
f 35//18 36//18 38//18 37//18
f 37//19 38//19 40//19 39//19
f 39//20 40//20 42//20 41//20
f 41//21 42//21 44//21 43//21
f 43//22 44//22 46//22 45//22
f 45//23 46//23 48//23 47//23
f 47//24 48//24 50//24 49//24
f 49//25 50//25 52//25 51//25
f 51//26 52//26 54//26 53//26
f 53//27 54//27 56//27 55//27
f 55//28 56//28 58//28 57//28
f 57//29 58//29 60//29 59//29
f 59//30 60//30 62//30 61//30
f 4//31 2//31 64//31 62//31 60//31 58//31 56//31 54//31 52//31 50//31 48//31 46//31 44//31 42//31 40//31 38//31 36//31 34//31 32//31 30//31 28//31 26//31 24//31 22//31 20//31 18//31 16//31 14//31 12//31 10//31 8//31 6//31
f 61//32 62//32 64//32 63//32
f 63//33 64//33 2//33 1//33
f 1//34 3//34 5//34 7//34 9//34 11//34 13//34 15//34 17//34 19//34 21//34 23//34 25//34 27//34 29//34 31//34 33//34 35//34 37//34 39//34 41//34 43//34 45//34 47//34 49//34 51//34 53//34 55//34 57//34 59//34 61//34 63//34
o wand-base_Cylinder.003
v -0.288413 1.662467 -1.839063
v 0.075820 1.415724 5.439217
v -0.235907 1.717651 -1.839820
v 0.128325 1.470908 5.438460
v -0.173007 1.761129 -1.841494
v 0.191226 1.514385 5.436786
v -0.102128 1.791228 -1.844020
v 0.262104 1.544485 5.434259
v -0.025996 1.806792 -1.847303
v 0.338237 1.560049 5.430977
v 0.052465 1.807225 -1.851215
v 0.416697 1.560481 5.427065
v 0.130238 1.792507 -1.855605
v 0.494471 1.545764 5.422674
v 0.204336 1.763206 -1.860307
v 0.568569 1.516463 5.417973
v 0.271911 1.720447 -1.865138
v 0.636143 1.473704 5.413141
v 0.330365 1.665873 -1.869914
v 0.694598 1.419130 5.408366
v 0.377453 1.601582 -1.874450
v 0.741686 1.354839 5.403830
v 0.411365 1.530045 -1.878572
v 0.775597 1.283302 5.399708
v 0.430797 1.454010 -1.882122
v 0.795030 1.207266 5.396158
v 0.435004 1.376399 -1.884964
v 0.799236 1.129656 5.393316
v 0.423822 1.300195 -1.886988
v 0.788055 1.053452 5.391292
v 0.397683 1.228327 -1.888116
v 0.761916 0.981584 5.390164
v 0.357590 1.163557 -1.888305
v 0.721823 0.916813 5.389975
v 0.305084 1.108372 -1.887549
v 0.669317 0.861629 5.390731
v 0.242184 1.064895 -1.885875
v 0.606416 0.818152 5.392405
v 0.171305 1.034796 -1.883348
v 0.535538 0.788052 5.394932
v 0.095173 1.019231 -1.880066
v 0.459405 0.772488 5.398214
v 0.016712 1.018799 -1.876154
v 0.380945 0.772056 5.402126
v -0.061062 1.033517 -1.871763
v 0.303171 0.786773 5.406517
v -0.135159 1.062818 -1.867061
v 0.229073 0.816075 5.411218
v -0.202734 1.105577 -1.862230
v 0.161499 0.858834 5.416049
v -0.261188 1.160151 -1.857455
v 0.103044 0.913407 5.420825
v -0.308276 1.224442 -1.852919
v 0.055956 0.977698 5.425361
v -0.342188 1.295979 -1.848796
v 0.022045 1.049236 5.429483
v -0.361620 1.372014 -1.845246
v 0.002612 1.125271 5.433033
v -0.365826 1.449625 -1.842405
v -0.001594 1.202882 5.435875
v -0.354645 1.525829 -1.840381
v 0.009588 1.279085 5.437899
v -0.328506 1.597697 -1.839253
v 0.035727 1.350953 5.439027
vn -0.7228 0.6885 0.0595
vn -0.5667 0.8220 0.0562
vn -0.3888 0.9199 0.0506
vn -0.1983 0.9792 0.0431
vn -0.0038 0.9994 0.0341
vn 0.1872 0.9820 0.0239
vn 0.3684 0.9296 0.0131
vn 0.5348 0.8450 0.0019
vn 0.6820 0.7313 -0.0093
vn 0.8059 0.5917 -0.0203
vn 0.9025 0.4296 -0.0306
vn 0.9676 0.2492 -0.0400
vn 0.9973 0.0558 -0.0480
vn 0.9882 -0.1435 -0.0543
vn 0.9385 -0.3404 -0.0585
vn 0.8488 -0.5252 -0.0603
vn 0.7228 -0.6885 -0.0595
vn 0.5667 -0.8220 -0.0562
vn 0.3888 -0.9199 -0.0506
vn 0.1983 -0.9792 -0.0431
vn 0.0038 -0.9994 -0.0341
vn -0.1872 -0.9820 -0.0239
vn -0.3684 -0.9296 -0.0131
vn -0.5348 -0.8450 -0.0019
vn -0.6820 -0.7313 0.0093
vn -0.8059 -0.5917 0.0203
vn -0.9025 -0.4296 0.0306
vn -0.9676 -0.2492 0.0400
vn -0.9973 -0.0558 0.0480
vn -0.9882 0.1436 0.0543
vn 0.0500 -0.0338 0.9982
vn -0.9385 0.3404 0.0585
vn -0.8488 0.5252 0.0603
vn -0.0500 0.0338 -0.9982
usemtl Material.003
s off
f 65//35 66//35 68//35 67//35
f 67//36 68//36 70//36 69//36
f 69//37 70//37 72//37 71//37
f 71//38 72//38 74//38 73//38
f 73//39 74//39 76//39 75//39
f 75//40 76//40 78//40 77//40
f 77//41 78//41 80//41 79//41
f 79//42 80//42 82//42 81//42
f 81//43 82//43 84//43 83//43
f 83//44 84//44 86//44 85//44
f 85//45 86//45 88//45 87//45
f 87//46 88//46 90//46 89//46
f 89//47 90//47 92//47 91//47
f 91//48 92//48 94//48 93//48
f 93//49 94//49 96//49 95//49
f 95//50 96//50 98//50 97//50
f 97//51 98//51 100//51 99//51
f 99//52 100//52 102//52 101//52
f 101//53 102//53 104//53 103//53
f 103//54 104//54 106//54 105//54
f 105//55 106//55 108//55 107//55
f 107//56 108//56 110//56 109//56
f 109//57 110//57 112//57 111//57
f 111//58 112//58 114//58 113//58
f 113//59 114//59 116//59 115//59
f 115//60 116//60 118//60 117//60
f 117//61 118//61 120//61 119//61
f 119//62 120//62 122//62 121//62
f 121//63 122//63 124//63 123//63
f 123//64 124//64 126//64 125//64
f 68//65 66//65 128//65 126//65 124//65 122//65 120//65 118//65 116//65 114//65 112//65 110//65 108//65 106//65 104//65 102//65 100//65 98//65 96//65 94//65 92//65 90//65 88//65 86//65 84//65 82//65 80//65 78//65 76//65 74//65 72//65 70//65
f 125//66 126//66 128//66 127//66
f 127//67 128//67 66//67 65//67
f 65//68 67//68 69//68 71//68 73//68 75//68 77//68 79//68 81//68 83//68 85//68 87//68 89//68 91//68 93//68 95//68 97//68 99//68 101//68 103//68 105//68 107//68 109//68 111//68 113//68 115//68 117//68 119//68 121//68 123//68 125//68 127//68
o wand-tip.001_Cylinder.005
v 0.075239 1.388522 5.444320
v 0.136793 1.346823 6.674320
v 0.127382 1.443964 5.443591
v 0.188936 1.402265 6.673590
v 0.189230 1.488232 5.441996
v 0.250784 1.446533 6.671996
v 0.258407 1.519625 5.439599
v 0.319961 1.477926 6.669598
v 0.332253 1.536937 5.436490
v 0.393807 1.495239 6.666489
v 0.407932 1.539503 5.432790
v 0.469486 1.497804 6.662789
v 0.482535 1.527223 5.428640
v 0.544089 1.485525 6.658639
v 0.553195 1.500571 5.424200
v 0.614749 1.458872 6.654200
v 0.617196 1.460569 5.419641
v 0.678750 1.418871 6.649641
v 0.672079 1.408756 5.415138
v 0.733633 1.367057 6.645138
v 0.715736 1.347122 5.410864
v 0.777290 1.305423 6.640863
v 0.746487 1.278036 5.406983
v 0.808041 1.236337 6.636982
v 0.763152 1.204153 5.403644
v 0.824706 1.162454 6.633644
v 0.765090 1.128312 5.400976
v 0.826644 1.086613 6.630976
v 0.752226 1.053428 5.399081
v 0.813780 1.011729 6.629081
v 0.725056 0.982378 5.398032
v 0.786609 0.940680 6.628032
v 0.684622 0.917894 5.397870
v 0.746176 0.876195 6.627869
v 0.632479 0.862452 5.398600
v 0.694033 0.820753 6.628599
v 0.570631 0.818184 5.400194
v 0.632185 0.776485 6.630193
v 0.501454 0.786790 5.402591
v 0.563008 0.745092 6.632591
v 0.427608 0.769478 5.405700
v 0.489162 0.727780 6.635699
v 0.351929 0.766913 5.409400
v 0.413483 0.725214 6.639400
v 0.277326 0.779192 5.413550
v 0.338880 0.737494 6.643549
v 0.206666 0.805845 5.417990
v 0.268220 0.764146 6.647989
v 0.142665 0.845847 5.422549
v 0.204219 0.804148 6.652548
v 0.087782 0.897660 5.427052
v 0.149335 0.855961 6.657051
v 0.044125 0.959294 5.431326
v 0.105679 0.917595 6.661325
v 0.013374 1.028380 5.435207
v 0.074928 0.986681 6.665206
v -0.003291 1.102263 5.438546
v 0.058263 1.060565 6.668545
v -0.005228 1.178104 5.441214
v 0.056325 1.136405 6.671213
v 0.007635 1.252988 5.443109
v 0.069189 1.211289 6.673108
v 0.034806 1.324038 5.444158
v 0.096360 1.282339 6.674157
vn -0.7268 0.6843 0.0596
vn -0.5801 0.8126 0.0566
vn -0.4112 0.9101 0.0514
vn -0.2263 0.9731 0.0443
vn -0.0321 0.9989 0.0355
vn 0.1637 0.9862 0.0252
vn 0.3537 0.9353 0.0140
vn 0.5301 0.8479 0.0022
vn 0.6860 0.7275 -0.0097
vn 0.8152 0.5789 -0.0212
vn 0.9125 0.4079 -0.0318
vn 0.9743 0.2216 -0.0412
vn 0.9984 0.0272 -0.0490
vn 0.9843 -0.1677 -0.0549
vn 0.9327 -0.3558 -0.0587
vn 0.8458 -0.5302 -0.0603
vn 0.7268 -0.6843 -0.0596
vn 0.5801 -0.8126 -0.0566
vn 0.4112 -0.9101 -0.0514
vn 0.2263 -0.9731 -0.0443
vn 0.0321 -0.9989 -0.0355
vn -0.1637 -0.9862 -0.0252
vn -0.3537 -0.9353 -0.0140
vn -0.5301 -0.8479 -0.0022
vn -0.6860 -0.7275 0.0097
vn -0.8152 -0.5789 0.0212
vn -0.9125 -0.4079 0.0318
vn -0.9743 -0.2216 0.0412
vn -0.9984 -0.0272 0.0490
vn -0.9843 0.1677 0.0549
vn 0.0500 -0.0338 0.9982
vn -0.9327 0.3558 0.0587
vn -0.8458 0.5302 0.0603
vn -0.0500 0.0338 -0.9982
usemtl Material.002
s off
f 129//69 130//69 132//69 131//69
f 131//70 132//70 134//70 133//70
f 133//71 134//71 136//71 135//71
f 135//72 136//72 138//72 137//72
f 137//73 138//73 140//73 139//73
f 139//74 140//74 142//74 141//74
f 141//75 142//75 144//75 143//75
f 143//76 144//76 146//76 145//76
f 145//77 146//77 148//77 147//77
f 147//78 148//78 150//78 149//78
f 149//79 150//79 152//79 151//79
f 151//80 152//80 154//80 153//80
f 153//81 154//81 156//81 155//81
f 155//82 156//82 158//82 157//82
f 157//83 158//83 160//83 159//83
f 159//84 160//84 162//84 161//84
f 161//85 162//85 164//85 163//85
f 163//86 164//86 166//86 165//86
f 165//87 166//87 168//87 167//87
f 167//88 168//88 170//88 169//88
f 169//89 170//89 172//89 171//89
f 171//90 172//90 174//90 173//90
f 173//91 174//91 176//91 175//91
f 175//92 176//92 178//92 177//92
f 177//93 178//93 180//93 179//93
f 179//94 180//94 182//94 181//94
f 181//95 182//95 184//95 183//95
f 183//96 184//96 186//96 185//96
f 185//97 186//97 188//97 187//97
f 187//98 188//98 190//98 189//98
f 132//99 130//99 192//99 190//99 188//99 186//99 184//99 182//99 180//99 178//99 176//99 174//99 172//99 170//99 168//99 166//99 164//99 162//99 160//99 158//99 156//99 154//99 152//99 150//99 148//99 146//99 144//99 142//99 140//99 138//99 136//99 134//99
f 189//100 190//100 192//100 191//100
f 191//101 192//101 130//101 129//101
f 129//102 131//102 133//102 135//102 137//102 139//102 141//102 143//102 145//102 147//102 149//102 151//102 153//102 155//102 157//102 159//102 161//102 163//102 165//102 167//102 169//102 171//102 173//102 175//102 177//102 179//102 181//102 183//102 185//102 187//102 189//102 191//102
